# xmcd
#
# Track frame offsets:
# 150
# 10068
# 25284
# 37179
# 51282
# 71641
#
# Disc length: 1256 seconds
#
#
# Revision: 0
# Processed by: cddbd v1.5.2PL0 Copyright (c) Steve Scherf et al.
# Submitted via: FreeRIP 2.945 
#
DISCID=4d04e606
DTITLE=various hicks - 3" of Bluegrass
DYEAR=2002
DGENRE=Bluegrass
TTITLE0=Billy Goat Boogie
TTITLE1=Dorene
TTITLE2=Alabam
TTITLE3=Hellfire and Brimstone
TTITLE4=1999
TTITLE5=Lee Harvey
EXTD=HMFHP!
EXTT0=
EXTT1=
EXTT2=
EXTT3=
EXTT4=
EXTT5=
PLAYORDER=
